<?xml version="1.0" encoding="UTF-8" standalone="no"?>
<!DOCTYPE svg PUBLIC "-//W3C//DTD SVG 20010904//EN"
              "http://www.w3.org/TR/2001/REC-SVG-20010904/DTD/svg10.dtd">

<svg xmlns="http://www.w3.org/2000/svg"
     width="6.4in" height="3.6in"
     viewBox="0 0 1920 1080">
  <path id="Selection"
        fill="darkgray" stroke="black" stroke-width="1"
        d="M 333.00,444.00
           C 323.58,444.09 314.94,445.67 310.40,455.00
             308.05,459.84 307.03,472.40 307.00,478.00
             307.00,478.00 307.00,541.00 307.00,541.00
             307.00,542.86 307.12,546.13 306.40,547.79
             304.76,551.57 293.96,555.36 290.00,556.99
             273.38,563.82 253.01,568.79 235.00,569.00
             214.17,569.24 192.72,567.99 173.00,560.58
             129.70,544.28 99.07,502.67 99.00,456.00
             99.00,456.00 99.00,447.00 99.00,447.00
             99.51,404.07 128.86,358.39 167.00,339.37
             185.27,330.25 204.89,327.97 225.00,328.00
             240.59,328.02 252.54,332.08 267.00,337.00
             271.57,338.56 282.61,343.57 286.98,342.17
             292.57,340.38 293.58,332.99 294.00,328.00
             301.56,328.24 300.71,330.27 301.04,337.00
             301.04,337.00 301.91,345.00 301.91,345.00
             301.91,345.00 304.17,376.00 304.17,376.00
             304.17,376.00 306.00,401.00 306.00,401.00
             298.41,400.76 300.10,399.59 295.57,389.00
             292.30,381.35 287.98,373.47 282.74,367.00
             267.36,348.03 247.02,339.96 223.00,340.00
             176.80,340.07 149.17,374.35 140.80,417.00
             139.54,423.44 138.03,434.54 138.00,441.00
             137.81,482.54 153.08,531.71 194.00,550.14
             203.76,554.53 213.37,556.83 224.00,557.83
             233.81,558.75 251.82,554.79 261.00,550.99
             263.93,549.77 270.51,546.97 272.40,544.61
             274.32,542.24 273.99,538.88 274.00,536.00
             274.00,536.00 274.00,473.00 274.00,473.00
             273.99,466.45 273.54,458.40 269.44,453.02
             263.44,445.12 253.22,444.20 244.00,444.00
             244.00,444.00 244.00,438.00 244.00,438.00
             244.00,438.00 333.00,438.00 333.00,438.00
             333.00,438.00 333.00,444.00 333.00,444.00 Z
           M 340.00,564.00
           C 340.35,553.03 347.16,559.43 357.96,551.36
             364.55,546.45 371.69,532.67 375.00,525.00
             375.00,525.00 439.58,374.00 439.58,374.00
             439.58,374.00 453.72,341.00 453.72,341.00
             459.00,328.73 457.50,328.10 466.00,328.00
             466.00,328.00 488.99,384.00 488.99,384.00
             488.99,384.00 538.72,503.00 538.72,503.00
             545.46,518.68 553.29,543.53 568.00,552.87
             573.27,556.22 579.01,556.91 585.00,558.00
             585.00,558.00 585.00,564.00 585.00,564.00
             585.00,564.00 494.00,564.00 494.00,564.00
             494.00,564.00 494.00,558.00 494.00,558.00
             498.27,557.44 504.10,556.83 508.00,555.24
             512.50,553.40 516.40,549.98 517.36,545.00
             518.76,537.74 510.47,519.14 507.42,512.00
             507.42,512.00 500.28,495.00 500.28,495.00
             499.22,492.57 498.15,489.45 495.78,488.02
             493.74,486.80 490.34,487.00 488.00,487.00
             488.00,487.00 416.00,487.00 416.00,487.00
             413.33,487.01 409.78,486.65 407.70,488.60
             405.95,490.23 402.04,500.20 400.85,503.00
             397.31,511.31 387.47,533.21 386.71,541.00
             385.29,555.46 403.15,556.23 413.00,558.00
             413.00,558.00 413.00,564.00 413.00,564.00
             413.00,564.00 340.00,564.00 340.00,564.00 Z
           M 1371.00,377.00
           C 1372.25,370.32 1376.28,363.64 1380.00,358.00
             1394.26,336.44 1409.27,327.88 1435.00,328.00
             1461.39,328.12 1485.96,346.10 1486.00,374.00
             1486.02,384.90 1484.69,390.38 1479.13,400.00
             1473.36,409.98 1463.87,419.72 1455.00,427.00
             1463.53,429.98 1471.14,434.36 1478.00,440.30
             1506.58,465.05 1501.94,510.56 1480.33,538.00
             1464.77,557.76 1437.67,567.71 1413.00,568.00
             1402.20,568.12 1384.10,568.30 1375.00,562.15
             1365.26,555.57 1363.56,541.47 1377.00,538.07
             1387.77,535.35 1400.45,544.39 1410.00,548.69
             1424.89,555.40 1440.88,554.80 1454.00,544.48
             1473.24,529.35 1476.92,506.93 1467.99,485.00
             1465.46,478.79 1461.65,471.98 1456.83,467.29
             1443.47,454.28 1424.13,449.00 1406.00,449.00
             1406.31,440.34 1408.27,443.13 1419.00,439.30
             1425.97,436.81 1434.29,432.22 1440.00,427.54
             1461.33,410.05 1466.37,375.16 1442.00,357.79
             1438.05,354.97 1433.66,353.38 1429.00,352.16
             1423.67,350.76 1418.42,350.64 1413.00,351.62
             1401.42,353.71 1394.14,358.71 1386.01,367.00
             1377.67,375.51 1378.52,379.23 1371.00,377.00 Z
           M 565.00,333.00
           C 565.00,333.00 651.00,333.00 651.00,333.00
             651.00,333.00 651.00,339.00 651.00,339.00
             641.78,339.03 628.02,342.07 628.26,354.00
             628.33,357.16 630.89,365.58 631.86,369.00
             631.86,369.00 644.66,406.00 644.66,406.00
             644.66,406.00 665.00,464.00 665.00,464.00
             665.00,464.00 681.00,509.00 681.00,509.00
             681.00,509.00 706.69,435.00 706.69,435.00
             706.69,435.00 714.69,412.00 714.69,412.00
             715.84,408.77 718.37,403.23 718.35,400.00
             718.33,397.48 712.88,382.53 711.66,379.00
             704.89,359.51 699.11,340.11 675.00,339.00
             675.00,339.00 675.00,333.00 675.00,333.00
             675.00,333.00 764.00,333.00 764.00,333.00
             764.00,333.00 764.00,339.00 764.00,339.00
             759.88,339.00 757.11,338.90 753.00,339.82
             732.21,344.49 742.23,367.68 746.67,381.00
             746.67,381.00 772.66,455.00 772.66,455.00
             772.66,455.00 784.31,488.00 784.31,488.00
             784.31,488.00 792.00,509.00 792.00,509.00
             792.00,509.00 829.33,401.00 829.33,401.00
             829.33,401.00 839.71,370.00 839.71,370.00
             840.97,365.60 843.21,358.44 842.88,354.00
             841.94,341.37 827.98,339.46 818.00,339.00
             818.00,339.00 818.00,333.00 818.00,333.00
             818.00,333.00 886.00,333.00 886.00,333.00
             886.00,333.00 886.00,339.00 886.00,339.00
             881.27,339.64 876.12,340.44 872.00,342.99
             859.93,350.48 854.96,370.11 850.67,383.00
             850.67,383.00 805.67,513.00 805.67,513.00
             805.67,513.00 791.33,555.00 791.33,555.00
             787.16,567.41 787.46,568.89 779.00,569.00
             779.00,569.00 755.69,503.00 755.69,503.00
             755.69,503.00 735.05,445.00 735.05,445.00
             735.05,445.00 727.00,423.00 727.00,423.00
             727.00,423.00 709.66,471.00 709.66,471.00
             709.66,471.00 687.33,534.00 687.33,534.00
             687.33,534.00 678.42,559.00 678.42,559.00
             678.42,559.00 674.30,568.01 674.30,568.01
             674.30,568.01 668.00,569.00 668.00,569.00
             668.00,569.00 658.05,540.00 658.05,540.00
             658.05,540.00 643.05,498.00 643.05,498.00
             643.05,498.00 604.81,391.00 604.81,391.00
             604.81,391.00 594.68,363.00 594.68,363.00
             591.87,355.41 589.91,349.17 582.96,344.22
             577.64,340.43 571.36,339.52 565.00,339.00
             565.00,339.00 565.00,333.00 565.00,333.00 Z
           M 902.00,333.00
           C 902.00,333.00 1090.00,333.00 1090.00,333.00
             1090.00,333.00 1091.00,349.00 1091.00,349.00
             1091.00,349.00 1092.00,368.00 1092.00,368.00
             1092.00,368.00 1093.00,387.00 1093.00,387.00
             1093.00,387.00 1086.00,387.00 1086.00,387.00
             1085.58,381.91 1084.37,375.80 1082.62,371.00
             1080.67,365.66 1078.03,362.00 1073.98,358.04
             1062.55,346.84 1051.62,348.00 1037.00,348.00
             1037.00,348.00 1012.00,348.00 1012.00,348.00
             1012.00,348.00 1012.00,530.00 1012.00,530.00
             1012.01,534.81 1012.48,542.69 1014.57,547.00
             1019.79,557.78 1033.73,558.00 1044.00,558.00
             1044.00,558.00 1044.00,564.00 1044.00,564.00
             1044.00,564.00 946.00,564.00 946.00,564.00
             946.00,564.00 946.00,558.00 946.00,558.00
             958.56,558.00 972.91,557.66 977.21,543.00
             978.45,538.80 978.99,531.45 979.00,527.00
             979.00,527.00 979.00,348.15 979.00,348.15
             979.00,348.15 953.00,348.15 953.00,348.15
             953.00,348.15 935.00,348.15 935.00,348.15
             922.45,350.73 912.70,359.97 908.75,372.00
             907.20,376.72 906.23,382.05 906.00,387.00
             906.00,387.00 899.00,387.00 899.00,387.00
             899.00,387.00 900.00,369.00 900.00,369.00
             900.00,369.00 901.00,351.00 901.00,351.00
             901.00,351.00 902.00,333.00 902.00,333.00 Z
           M 1108.00,333.00
           C 1108.00,333.00 1206.00,333.00 1206.00,333.00
             1206.00,333.00 1206.00,339.00 1206.00,339.00
             1196.20,339.00 1184.30,339.46 1177.80,348.09
             1174.01,353.12 1173.08,364.68 1173.00,371.00
             1173.00,371.00 1173.00,440.00 1173.00,440.00
             1173.00,440.00 1280.00,440.00 1280.00,440.00
             1280.00,440.00 1280.00,377.00 1280.00,377.00
             1280.00,368.86 1281.14,355.76 1276.35,349.02
             1269.73,339.68 1257.34,339.00 1247.00,339.00
             1247.00,339.00 1247.00,333.00 1247.00,333.00
             1247.00,333.00 1346.00,333.00 1346.00,333.00
             1346.00,333.00 1346.00,339.00 1346.00,339.00
             1335.34,339.00 1320.91,339.90 1315.57,351.00
             1313.49,355.32 1313.01,363.19 1313.00,368.00
             1313.00,368.00 1313.00,528.00 1313.00,528.00
             1313.01,532.67 1313.60,541.90 1315.57,546.00
             1320.89,557.10 1335.35,558.00 1346.00,558.00
             1346.00,558.00 1346.00,564.00 1346.00,564.00
             1346.00,564.00 1247.00,564.00 1247.00,564.00
             1247.00,564.00 1247.00,558.00 1247.00,558.00
             1257.41,558.00 1268.51,558.12 1275.58,548.98
             1279.49,543.94 1279.99,535.21 1280.00,529.00
             1280.00,529.00 1280.00,453.00 1280.00,453.00
             1280.00,453.00 1173.00,453.00 1173.00,453.00
             1173.00,453.00 1173.00,526.00 1173.00,526.00
             1173.08,532.16 1173.87,544.01 1177.65,548.83
             1184.43,557.49 1195.99,558.00 1206.00,558.00
             1206.00,558.00 1206.00,564.00 1206.00,564.00
             1206.00,564.00 1108.00,564.00 1108.00,564.00
             1108.00,564.00 1108.00,558.00 1108.00,558.00
             1118.65,558.00 1131.67,557.90 1137.32,547.00
             1140.08,541.67 1139.63,537.54 1140.17,532.00
             1140.17,532.00 1141.00,494.00 1141.00,494.00
             1141.00,494.00 1141.00,375.00 1141.00,375.00
             1140.99,369.23 1140.14,354.74 1137.44,350.04
             1131.50,339.67 1118.51,339.00 1108.00,339.00
             1108.00,339.00 1108.00,333.00 1108.00,333.00 Z
           M 1533.00,333.00
           C 1533.00,333.00 1631.00,333.00 1631.00,333.00
             1631.00,333.00 1641.00,333.91 1641.00,333.91
             1655.11,334.88 1669.21,336.09 1682.00,342.78
             1696.54,350.40 1708.58,364.61 1711.77,381.00
             1712.20,384.68 1712.04,392.93 1711.77,397.00
             1711.85,409.12 1705.91,421.15 1697.83,429.99
             1686.51,442.35 1671.39,446.51 1656.00,451.00
             1656.00,451.00 1675.42,478.00 1675.42,478.00
             1675.42,478.00 1703.29,517.00 1703.29,517.00
             1717.95,537.57 1732.81,555.75 1760.00,557.00
             1760.00,557.00 1760.00,564.00 1760.00,564.00
             1760.00,564.00 1708.00,564.00 1708.00,564.00
             1708.00,564.00 1700.30,562.98 1700.30,562.98
             1700.30,562.98 1692.14,553.00 1692.14,553.00
             1692.14,553.00 1677.14,532.00 1677.14,532.00
             1677.14,532.00 1638.42,478.00 1638.42,478.00
             1638.42,478.00 1621.70,456.02 1621.70,456.02
             1621.70,456.02 1609.00,455.20 1609.00,455.20
             1609.00,455.20 1598.00,455.20 1598.00,455.20
             1598.00,455.20 1598.00,524.00 1598.00,524.00
             1598.09,531.13 1599.08,544.34 1603.56,549.91
             1610.22,558.20 1621.39,558.00 1631.00,558.00
             1631.00,558.00 1631.00,564.00 1631.00,564.00
             1631.00,564.00 1533.00,564.00 1533.00,564.00
             1533.00,564.00 1533.00,558.00 1533.00,558.00
             1539.02,558.00 1545.24,558.25 1551.00,556.16
             1565.17,551.03 1565.98,536.83 1566.00,524.00
             1566.00,524.00 1566.00,403.00 1566.00,403.00
             1566.00,403.00 1565.28,363.00 1565.28,363.00
             1564.71,358.32 1564.90,354.41 1562.56,350.00
             1556.75,339.05 1543.69,339.00 1533.00,339.00
             1533.00,339.00 1533.00,333.00 1533.00,333.00 Z
           M 1598.00,445.00
           C 1618.35,445.00 1640.14,444.76 1657.00,431.48
             1682.24,411.60 1679.52,367.53 1651.00,351.90
             1633.76,342.45 1616.12,346.60 1598.00,349.00
             1598.00,349.00 1598.00,445.00 1598.00,445.00 Z
           M 453.00,382.00
           C 453.00,382.00 438.72,414.00 438.72,414.00
             438.72,414.00 413.00,474.00 413.00,474.00
             413.00,474.00 492.00,474.00 492.00,474.00
             492.00,474.00 468.42,417.00 468.42,417.00
             468.42,417.00 453.00,382.00 453.00,382.00 Z
           M 393.00,675.00
           C 381.73,663.73 371.32,654.34 365.43,639.00
             357.06,617.23 366.74,593.75 387.00,582.51
             396.53,577.23 407.29,575.88 418.00,576.00
             441.51,576.28 458.10,588.50 470.19,608.00
             473.66,613.61 476.48,618.52 478.00,625.00
             478.00,625.00 472.00,627.00 472.00,627.00
             465.43,615.69 453.84,604.55 441.00,600.92
             417.20,594.21 391.31,608.71 391.00,635.00
             390.77,655.22 397.29,668.92 415.00,679.94
             419.90,682.98 426.52,686.15 432.00,688.00
             432.00,688.00 441.40,691.01 441.40,691.01
             443.14,692.45 442.93,694.97 443.00,697.00
             419.71,697.00 394.02,705.89 382.97,728.00
             378.61,736.72 375.19,749.22 376.17,759.00
             378.51,782.47 396.97,801.27 421.00,801.00
             429.50,800.90 437.58,797.68 445.00,793.69
             452.81,789.50 462.76,783.73 472.00,786.07
             484.33,789.19 484.23,802.42 474.98,809.21
             465.04,816.51 447.93,816.14 436.00,816.00
             410.77,815.70 384.69,805.79 368.46,786.00
             348.65,761.83 343.40,721.58 363.52,696.00
             371.28,686.12 381.63,679.90 393.00,675.00 Z
           M 1264.00,812.00
           C 1264.36,800.67 1270.25,808.54 1283.00,799.37
             1291.30,793.40 1296.90,781.14 1301.22,772.00
             1301.22,772.00 1323.42,719.00 1323.42,719.00
             1323.42,719.00 1363.99,622.00 1363.99,622.00
             1363.99,622.00 1378.15,588.00 1378.15,588.00
             1383.26,576.09 1382.25,576.09 1390.00,576.00
             1390.00,576.00 1398.58,597.00 1398.58,597.00
             1398.58,597.00 1418.58,644.00 1418.58,644.00
             1418.58,644.00 1472.42,770.00 1472.42,770.00
             1476.08,778.40 1483.27,792.89 1490.04,798.78
             1499.65,807.14 1507.59,800.44 1508.00,812.00
             1508.00,812.00 1436.00,812.00 1436.00,812.00
             1436.00,812.00 1436.00,806.00 1436.00,806.00
             1444.46,804.48 1457.13,804.28 1460.99,794.99
             1463.03,790.08 1461.29,783.76 1459.56,779.00
             1459.56,779.00 1447.85,751.00 1447.85,751.00
             1446.58,748.04 1443.17,739.26 1441.35,737.31
             1438.81,734.59 1435.41,735.01 1432.00,735.00
             1432.00,735.00 1351.00,735.00 1351.00,735.00
             1351.00,735.00 1333.15,781.00 1333.15,781.00
             1330.56,790.24 1329.46,798.28 1340.00,803.03
             1343.67,804.68 1350.81,805.45 1355.00,806.00
             1355.00,806.00 1355.00,812.00 1355.00,812.00
             1355.00,812.00 1264.00,812.00 1264.00,812.00 Z
           M 1548.00,576.00
           C 1548.00,576.00 1555.00,576.00 1555.00,576.00
             1555.13,581.53 1556.27,589.27 1563.00,590.40
             1567.21,591.10 1580.32,585.35 1585.00,583.69
             1597.30,579.32 1610.90,576.02 1624.00,576.00
             1641.61,575.97 1659.64,577.86 1676.00,584.87
             1719.32,603.43 1749.45,651.05 1750.00,698.00
             1750.53,744.25 1725.20,787.63 1682.00,806.13
             1660.11,815.50 1637.47,817.27 1614.00,817.00
             1595.96,816.79 1574.54,811.84 1558.00,804.72
             1553.64,802.84 1543.41,799.33 1541.60,794.90
             1540.88,793.14 1541.00,789.94 1541.00,788.00
             1541.00,788.00 1541.00,732.00 1541.00,732.00
             1541.00,723.91 1541.86,710.11 1538.43,703.00
             1534.00,693.82 1525.20,692.08 1516.00,692.00
             1516.00,692.00 1516.00,686.00 1516.00,686.00
             1516.00,686.00 1605.00,686.00 1605.00,686.00
             1605.00,686.00 1605.00,692.00 1605.00,692.00
             1595.26,692.21 1584.68,693.36 1578.65,702.00
             1574.01,708.66 1575.00,720.11 1575.00,728.00
             1575.00,728.00 1575.00,784.00 1575.00,784.00
             1575.01,786.97 1574.71,790.27 1576.60,792.79
             1578.67,795.56 1583.81,797.37 1587.00,798.72
             1596.03,802.54 1613.25,806.34 1623.00,805.96
             1629.05,805.73 1640.22,803.59 1646.00,801.64
             1687.61,787.64 1707.09,745.00 1710.09,704.00
             1710.09,704.00 1711.00,692.00 1711.00,692.00
             1710.89,681.18 1708.99,668.51 1706.37,658.00
             1702.01,640.48 1692.46,620.57 1678.96,608.29
             1653.41,585.05 1611.12,580.59 1582.00,600.09
             1566.36,610.56 1553.30,630.66 1549.00,649.00
             1549.00,649.00 1542.00,649.00 1542.00,649.00
             1542.00,649.00 1545.09,615.00 1545.09,615.00
             1545.09,615.00 1548.00,576.00 1548.00,576.00 Z
           M 192.00,698.00
           C 185.45,697.45 180.03,695.49 174.00,692.99
             163.51,688.64 154.63,683.05 147.52,674.00
             133.32,655.95 132.40,629.08 145.10,610.00
             148.57,604.78 155.79,597.88 161.00,594.36
             175.54,584.54 190.08,583.09 207.00,581.91
             207.00,581.91 219.00,581.00 219.00,581.00
             219.00,581.00 316.00,581.00 316.00,581.00
             316.00,581.00 316.00,587.00 316.00,587.00
             305.56,587.00 293.14,586.96 286.84,597.00
             283.75,601.92 283.01,612.18 283.00,618.00
             283.00,618.00 283.00,776.00 283.00,776.00
             283.01,780.86 283.38,786.33 284.78,791.00
             289.16,805.57 303.46,806.00 316.00,806.00
             316.00,806.00 316.00,812.00 316.00,812.00
             316.00,812.00 217.00,812.00 217.00,812.00
             217.00,812.00 217.00,806.00 217.00,806.00
             227.74,806.00 238.21,806.51 245.58,796.98
             251.07,789.89 250.00,776.64 250.00,768.00
             250.00,768.00 250.00,703.00 250.00,703.00
             250.00,703.00 227.18,704.02 227.18,704.02
             227.18,704.02 221.12,711.00 221.12,711.00
             221.12,711.00 209.58,727.00 209.58,727.00
             209.58,727.00 170.88,781.00 170.88,781.00
             170.88,781.00 155.86,802.00 155.86,802.00
             155.86,802.00 148.54,811.01 148.54,811.01
             148.54,811.01 141.00,812.00 141.00,812.00
             141.00,812.00 87.00,812.00 87.00,812.00
             87.28,803.18 89.77,806.30 101.00,802.96
             110.62,800.11 117.45,796.42 124.99,789.71
             135.84,780.04 159.91,744.75 169.71,731.00
             174.88,723.75 189.28,704.99 192.00,698.00 Z
           M 503.00,581.00
           C 503.00,581.00 601.00,581.00 601.00,581.00
             601.00,581.00 601.00,587.00 601.00,587.00
             590.25,587.00 578.25,587.97 571.72,598.00
             568.96,602.24 568.07,617.49 568.00,623.00
             568.00,623.00 568.00,688.00 568.00,688.00
             568.00,688.00 675.00,688.00 675.00,688.00
             675.00,688.00 675.00,625.00 675.00,625.00
             675.00,616.92 676.23,603.64 671.49,597.00
             664.60,587.37 652.66,587.00 642.00,587.00
             642.00,587.00 642.00,581.00 642.00,581.00
             642.00,581.00 741.00,581.00 741.00,581.00
             741.00,581.00 741.00,587.00 741.00,587.00
             730.84,587.00 716.79,587.89 711.14,598.01
             708.76,602.27 708.01,612.98 708.00,618.00
             708.00,618.00 708.00,774.00 708.00,774.00
             708.03,779.72 709.03,791.22 712.00,795.99
             718.26,806.03 730.61,806.00 741.00,806.00
             741.00,806.00 741.00,812.00 741.00,812.00
             741.00,812.00 642.00,812.00 642.00,812.00
             642.00,812.00 642.00,806.00 642.00,806.00
             652.94,806.00 665.63,805.39 672.27,795.00
             676.03,789.10 675.00,774.28 675.00,767.00
             675.00,767.00 675.00,701.00 675.00,701.00
             675.00,701.00 568.00,701.00 568.00,701.00
             568.00,701.00 568.00,770.00 568.00,770.00
             568.08,776.44 569.09,790.89 572.65,796.00
             579.58,805.93 590.15,806.00 601.00,806.00
             601.00,806.00 601.00,812.00 601.00,812.00
             601.00,812.00 503.00,812.00 503.00,812.00
             503.00,812.00 503.00,806.00 503.00,806.00
             513.05,806.00 525.87,805.39 532.01,795.96
             535.31,790.90 535.99,779.13 536.00,773.00
             536.00,773.00 536.00,619.00 536.00,619.00
             535.97,613.07 535.15,601.94 532.01,597.02
             525.98,587.56 513.00,587.00 503.00,587.00
             503.00,587.00 503.00,581.00 503.00,581.00 Z
           M 759.00,581.00
           C 759.00,581.00 947.00,581.00 947.00,581.00
             947.00,581.00 949.00,635.00 949.00,635.00
             949.00,635.00 943.00,635.00 943.00,635.00
             942.61,630.25 941.52,624.49 939.91,620.00
             938.88,617.12 937.12,613.56 935.45,611.00
             925.13,595.08 912.61,596.00 896.00,596.00
             896.00,596.00 870.00,596.00 870.00,596.00
             870.00,596.00 870.00,777.00 870.00,777.00
             870.01,781.83 870.49,789.67 872.57,794.00
             878.05,805.44 891.07,806.00 902.00,806.00
             902.00,806.00 902.00,812.00 902.00,812.00
             902.00,812.00 805.00,812.00 805.00,812.00
             805.00,812.00 805.00,806.00 805.00,806.00
             814.13,806.00 826.22,805.94 832.35,797.91
             836.33,792.70 836.99,783.38 837.00,777.00
             837.00,777.00 837.00,596.00 837.00,596.00
             837.00,596.00 812.00,596.00 812.00,596.00
             796.51,596.00 783.86,594.86 772.67,608.09
             769.70,611.60 767.20,615.62 765.75,620.00
             764.20,624.67 763.23,630.09 763.00,635.00
             763.00,635.00 756.00,635.00 756.00,635.00
             756.00,635.00 757.00,611.00 757.00,611.00
             757.00,611.00 758.00,597.00 758.00,597.00
             758.00,597.00 759.00,581.00 759.00,581.00 Z
           M 962.00,581.00
           C 962.00,581.00 1031.00,581.00 1031.00,581.00
             1031.00,581.00 1031.00,587.00 1031.00,587.00
             1021.96,587.41 1008.21,588.99 1006.23,600.00
             1005.32,605.02 1007.27,612.14 1008.72,617.00
             1008.72,617.00 1018.33,646.00 1018.33,646.00
             1018.33,646.00 1042.66,716.00 1042.66,716.00
             1042.66,716.00 1057.00,757.00 1057.00,757.00
             1057.00,757.00 1068.69,724.00 1068.69,724.00
             1068.69,724.00 1093.69,653.00 1093.69,653.00
             1093.69,653.00 1105.29,619.00 1105.29,619.00
             1106.38,615.15 1108.94,605.67 1108.73,602.00
             1107.98,588.62 1094.32,587.00 1084.00,587.00
             1084.00,587.00 1084.00,581.00 1084.00,581.00
             1084.00,581.00 1174.00,581.00 1174.00,581.00
             1174.00,581.00 1174.00,587.00 1174.00,587.00
             1149.28,588.14 1144.80,606.68 1137.58,626.00
             1136.12,629.90 1130.61,644.74 1130.53,648.00
             1130.47,650.73 1132.71,656.15 1133.67,659.00
             1133.67,659.00 1141.33,681.00 1141.33,681.00
             1141.33,681.00 1168.00,757.00 1168.00,757.00
             1168.00,757.00 1212.66,630.00 1212.66,630.00
             1214.78,623.88 1221.12,605.71 1220.30,600.00
             1219.42,593.83 1213.70,589.48 1208.00,588.04
             1204.29,587.11 1201.76,587.03 1198.00,587.00
             1198.00,587.00 1198.00,581.00 1198.00,581.00
             1198.00,581.00 1283.00,581.00 1283.00,581.00
             1283.00,581.00 1283.00,587.00 1283.00,587.00
             1277.48,587.45 1270.65,588.68 1266.01,591.85
             1256.88,598.10 1251.77,617.56 1247.81,628.00
             1247.81,628.00 1224.31,694.00 1224.31,694.00
             1224.31,694.00 1201.00,759.00 1201.00,759.00
             1201.00,759.00 1184.95,804.00 1184.95,804.00
             1183.52,807.90 1181.54,817.69 1176.11,816.63
             1173.28,816.07 1172.52,813.36 1171.67,811.00
             1171.67,811.00 1166.33,796.00 1166.33,796.00
             1166.33,796.00 1143.34,731.00 1143.34,731.00
             1143.34,731.00 1122.00,670.00 1122.00,670.00
             1122.00,670.00 1107.31,711.00 1107.31,711.00
             1107.31,711.00 1082.00,782.00 1082.00,782.00
             1082.00,782.00 1073.69,805.00 1073.69,805.00
             1073.69,805.00 1069.30,815.40 1069.30,815.40
             1069.30,815.40 1062.00,817.00 1062.00,817.00
             1062.00,817.00 1054.33,794.00 1054.33,794.00
             1054.33,794.00 1036.69,743.00 1036.69,743.00
             1036.69,743.00 1000.95,639.00 1000.95,639.00
             995.64,624.48 989.79,598.39 976.00,590.53
             971.86,588.17 966.69,587.38 962.00,587.00
             962.00,587.00 962.00,581.00 962.00,581.00 Z
           M 250.00,597.00
           C 231.17,594.50 213.66,590.20 196.00,600.93
             177.88,611.93 174.78,627.56 175.00,647.00
             175.17,660.94 182.93,673.00 194.00,681.07
             210.15,692.86 230.90,693.00 250.00,693.00
             250.00,693.00 250.00,597.00 250.00,597.00 Z
           M 1396.00,630.00
           C 1396.00,630.00 1381.58,662.00 1381.58,662.00
             1381.58,662.00 1365.58,700.00 1365.58,700.00
             1365.58,700.00 1357.00,722.00 1357.00,722.00
             1357.00,722.00 1435.00,722.00 1435.00,722.00
             1435.00,722.00 1420.85,687.00 1420.85,687.00
             1420.85,687.00 1404.86,650.00 1404.86,650.00
             1404.86,650.00 1396.00,630.00 1396.00,630.00 Z" />
</svg>
